<svg width="40" height="40" viewBox="0 0 40 40" fill="none" xmlns="http://www.w3.org/2000/svg">
<circle cx="20" cy="20" r="20" fill="#4073FF"/>
<path d="M23.6987 13.0033L21.7799 13C19.6242 13 18.231 14.5455 18.231 16.9376V18.7531H16.3017C16.135 18.7531 16 18.8993 16 19.0795V21.71C16 21.8903 16.1352 22.0363 16.3017 22.0363H18.231V28.6738C18.231 28.854 18.366 29 18.5327 29H21.0499C21.2166 29 21.3517 28.8539 21.3517 28.6738V22.0363H23.6075C23.7742 22.0363 23.9092 21.8903 23.9092 21.71L23.9101 19.0795C23.9101 18.993 23.8782 18.9101 23.8217 18.8488C23.7652 18.7876 23.6883 18.7531 23.6082 18.7531H21.3517V17.2141C21.3517 16.4744 21.5147 16.0989 22.4058 16.0989L23.6984 16.0984C23.865 16.0984 24 15.9522 24 15.7721V13.3296C24 13.1496 23.8652 13.0037 23.6987 13.0033Z" fill="white"/>
</svg>
