<svg width="40" height="40" viewBox="0 0 40 40" fill="none" xmlns="http://www.w3.org/2000/svg">
<circle cx="20" cy="20" r="20" fill="#4073FF"/>
<path d="M26.9151 25.0311C26.8958 24.9854 26.8777 24.9474 26.8609 24.917C26.5833 24.3693 26.0528 23.6971 25.2698 22.9001L25.2533 22.8819L25.245 22.8729L25.2366 22.8637H25.2282C24.8728 22.4926 24.6478 22.2431 24.5535 22.1153C24.3811 21.872 24.3424 21.6256 24.4367 21.376C24.5033 21.1874 24.7534 20.7892 25.1864 20.1807C25.4142 19.8582 25.5946 19.5998 25.7279 19.4051C26.6887 18.0057 27.1053 17.1115 26.9775 16.7221L26.9279 16.6311C26.8945 16.5763 26.8084 16.5262 26.6698 16.4805C26.5308 16.4349 26.3531 16.4274 26.1364 16.4578L23.7373 16.4759C23.6985 16.4608 23.643 16.4622 23.5707 16.4805C23.4984 16.4988 23.4623 16.508 23.4623 16.508L23.4206 16.5308L23.3874 16.5583C23.3596 16.5764 23.3291 16.6084 23.2957 16.654C23.2626 16.6995 23.2348 16.7529 23.2126 16.8137C22.9514 17.5498 22.6545 18.2343 22.3212 18.8669C22.1157 19.2442 21.9269 19.5711 21.7546 19.848C21.5825 20.1247 21.4381 20.3286 21.3215 20.4593C21.2048 20.5901 21.0995 20.6949 21.0049 20.7741C20.9104 20.8533 20.8383 20.8868 20.7884 20.8745C20.7384 20.8623 20.6913 20.8501 20.6466 20.838C20.5689 20.7832 20.5064 20.7087 20.4593 20.6144C20.412 20.5201 20.3801 20.4014 20.3635 20.2585C20.3469 20.1154 20.3371 19.9923 20.3343 19.8889C20.3317 19.7855 20.3329 19.6394 20.3385 19.4508C20.3443 19.2621 20.3469 19.1345 20.3469 19.0675C20.3469 18.8363 20.351 18.5854 20.3593 18.3146C20.3677 18.0439 20.3745 17.8294 20.3802 17.6714C20.3858 17.5132 20.3884 17.3458 20.3884 17.1694C20.3884 16.993 20.3786 16.8546 20.3593 16.7542C20.3401 16.6539 20.3107 16.5565 20.272 16.4621C20.2331 16.3678 20.1761 16.2949 20.1012 16.2431C20.0263 16.1914 19.9331 16.1504 19.8222 16.1199C19.5278 16.0469 19.153 16.0074 18.6975 16.0013C17.6645 15.9892 17.0008 16.0622 16.7065 16.2204C16.5899 16.2872 16.4843 16.3786 16.39 16.4941C16.29 16.628 16.276 16.701 16.3482 16.713C16.6815 16.7677 16.9174 16.8986 17.0563 17.1054L17.1063 17.215C17.1452 17.2941 17.1841 17.4341 17.223 17.6348C17.2618 17.8355 17.2869 18.0576 17.2979 18.3008C17.3256 18.745 17.3256 19.1252 17.2979 19.4415C17.2701 19.758 17.2438 20.0043 17.2188 20.1807C17.1937 20.3572 17.1563 20.5001 17.1063 20.6096C17.0563 20.7191 17.023 20.786 17.0063 20.8103C16.9896 20.8346 16.9757 20.8499 16.9647 20.8559C16.8925 20.8862 16.8174 20.9017 16.7397 20.9017C16.6619 20.9017 16.5676 20.859 16.4565 20.7738C16.3455 20.6886 16.2303 20.5716 16.1108 20.4225C15.9914 20.2734 15.8567 20.065 15.7067 19.7974C15.5568 19.5297 15.4013 19.2134 15.2403 18.8484L15.107 18.5836C15.0237 18.4133 14.9099 18.1654 14.7655 17.84C14.621 17.5144 14.4933 17.1995 14.3823 16.8953C14.3379 16.7676 14.2712 16.6703 14.1824 16.6034L14.1407 16.5759C14.113 16.5516 14.0685 16.5258 14.0074 16.4984C13.9463 16.4709 13.8825 16.4512 13.8158 16.4391L11.5333 16.4572C11.3 16.4572 11.1417 16.5151 11.0584 16.6307L11.0251 16.6854C11.0084 16.7159 11 16.7645 11 16.8315C11 16.8984 11.0167 16.9806 11.05 17.0778C11.3832 17.9357 11.7456 18.7631 12.1371 19.56C12.5286 20.357 12.8688 20.999 13.1575 21.4854C13.4463 21.9722 13.7407 22.4316 14.0406 22.8634C14.3405 23.2954 14.539 23.5722 14.6362 23.6938C14.7334 23.8156 14.8098 23.9067 14.8653 23.9676L15.0736 24.1865C15.2069 24.3326 15.4026 24.5075 15.6609 24.7112C15.9192 24.9151 16.2052 25.1159 16.519 25.3137C16.8328 25.5113 17.1979 25.6725 17.6145 25.7972C18.031 25.922 18.4364 25.9721 18.8307 25.948H19.7887C19.983 25.9296 20.1302 25.8626 20.2303 25.7471L20.2634 25.7014C20.2857 25.6651 20.3066 25.6087 20.3259 25.5328C20.3453 25.4567 20.355 25.3729 20.355 25.2818C20.3493 25.0203 20.3675 24.7845 20.4091 24.5747C20.4506 24.3649 20.4979 24.2067 20.5508 24.1001C20.6037 23.9937 20.6634 23.9039 20.7299 23.8311C20.7965 23.7581 20.8439 23.7139 20.8717 23.6987C20.8994 23.6834 20.9215 23.673 20.9382 23.6668C21.0714 23.6181 21.2283 23.6652 21.409 23.8083C21.5895 23.9513 21.7588 24.1278 21.9172 24.3376C22.0755 24.5476 22.2657 24.7832 22.4878 25.0448C22.71 25.3064 22.9043 25.5009 23.0709 25.6289L23.2374 25.7384C23.3487 25.8114 23.4931 25.8784 23.6708 25.9392C23.8482 26 24.0037 26.0152 24.1372 25.9848L26.2697 25.9484C26.4807 25.9484 26.6448 25.9101 26.7612 25.8342C26.8779 25.7582 26.9472 25.6744 26.9695 25.5833C26.9918 25.492 26.993 25.3885 26.9737 25.2728C26.954 25.1574 26.9345 25.0767 26.9151 25.0311Z" fill="white"/>
</svg>
